#!OML:ASF E:\id_vita\Project 1\Capture day 1\Session 1\Male1.ASF
:FULLY-SPECIFIED
:DEGREES
476
root 34.8332 16.2736 -0.150333 218.2 86.9171 215.647
lowerback -3.61163 -0.295214 -1.37514
upperback 4.04007 -0.262397 -0.0504509
thorax 6.22978 -0.174217 0.696806
lowerneck -9.59119 -2.52608 6.22281
upperneck 37.43 -3.38731 -0.403495
head 14.3345 -0.0440373 -1.60825
rclavicle 1.02374e-014 1.59028e-015
rhumerus -26.7039 -1.87958 -85.658
rradius 35.1662
rwrist -0.773084
rhand -21.4609 33.7659
rfingers 7.12502
rthumb 4.92936 3.84321
lclavicle 1.02374e-014 1.59028e-015
lhumerus -35.8531 32.184 68.5268
lradius 2.69148
lwrist -17.9898
lhand -15.6587 51.0098
lfingers 7.12502
lthumb 10.5294 80.7261
rfemur 3.18481 0.710907 26.6804
rtibia 15.4773
rfoot -15.3647 -9.16455
rtoes -6.15042
lfemur -29.5649 -2.57053 -16.4185
ltibia 26.884
lfoot -20.8961 1.19693
ltoes 4.52596
477
root 34.9576 16.2766 -0.138979 228.827 86.6621 226.525
lowerback -3.43429 -0.220622 -1.03471
upperback 4.14522 -0.195901 0.172746
thorax 6.23617 -0.130756 0.744533
lowerneck -9.72595 -2.41618 5.91924
upperneck 37.5257 -3.19125 -0.309467
head 14.4264 0.0151384 -1.49171
rclavicle 2.98177e-016 -6.36111e-015
rhumerus -26.5757 -1.86718 -85.5751
rradius 35.2554
rwrist -0.462914
rhand -21.4332 34.0046
rfingers 7.12502
rthumb 4.95605 4.08257
lclavicle 2.98177e-016 -6.36111e-015
lhumerus -36.4294 32.0889 68.2881
lradius 2.81413
lwrist -17.7163
lhand -15.4963 51.0085
lfingers 7.12502
lthumb 10.686 80.7168
rfemur 4.4982 1.45589 27.5848
rtibia 14.2676
rfoot -14.7883 -9.35121
rtoes -5.31947
lfemur -29.8038 -2.62835 -15.5413
ltibia 25.8802
lfoot -21.4384 2.14669
ltoes 4.19946
478
root 35.0688 16.2862 -0.157156 229.518 86.7171 226.988
lowerback -3.48073 -0.168432 -0.863687
upperback 3.99467 -0.136375 0.0888296
thorax 6.10136 -0.0918644 0.566419
lowerneck -9.54298 -2.43583 6.08256
upperneck 37.6216 -3.13786 -0.546776
head 14.421 0.0385052 -1.60708
rclavicle 1.73937e-015 -1.98785e-015
rhumerus -26.428 -1.90412 -85.5268
rradius 34.9401
rwrist -0.421362
rhand -21.5759 34.2683
rfingers 7.12502
rthumb 4.81828 4.34308
lclavicle 1.73937e-015 -1.98785e-015
lhumerus -37.1135 31.7904 67.9854
lradius 3.04104
lwrist -17.4231
lhand -15.3633 50.987
lfingers 7.12502
lthumb 10.8144 80.6886
rfemur 5.24453 1.13784 27.3633
rtibia 13.0801
rfoot -14.5304 -8.53421
rtoes -4.87209
lfemur -30.4696 -2.96262 -15.5225
ltibia 24.9735
lfoot -21.9203 3.11456
ltoes 3.65622
479
root 35.1834 16.2894 -0.170059 232.591 86.7042 229.966
lowerback -3.58744 -0.0902185 -0.680289
upperback 4.00061 -0.0440795 0.108814
thorax 6.16705 -0.0389476 0.492409
lowerneck -9.16999 -2.50404 6.60676
upperneck 37.461 -3.13737 -1.0698
head 14.2332 0.0354235 -1.90524
rclavicle -4.96962e-016 -3.97569e-015
rhumerus -26.3349 -2.13777 -85.3941
rradius 35.2009
rwrist -0.423622
rhand -21.5732 34.2494
rfingers 7.12502
rthumb 4.8209 4.32426
lclavicle -4.96962e-016 -3.97569e-015
lhumerus -37.5959 31.575 67.8456
lradius 3.26316
lwrist -17.1409
lhand -15.3609 50.7344
lfingers 7.12502
lthumb 10.8167 80.4359
rfemur 6.25381 1.19079 27.3661
rtibia 11.7008
rfoot -14.1144 -7.88424
rtoes -4.74395
lfemur -31.0034 -3.3675 -15.2696
ltibia 24.2939
lfoot -22.2602 3.99651
ltoes 2.94483
480
root 35.2994 16.2897 -0.184091 236.616 86.7525 233.982
lowerback -3.72653 -0.0209944 -0.56525
upperback 4.12073 0.0411175 0.166467
thorax 6.37303 0.00682613 0.495922
lowerneck -9.13876 -2.43879 6.00306
upperneck 37.3862 -3.05372 -0.617426
head 14.2193 0.0421452 -1.60153
rclavicle 8.94531e-016 -1.59028e-015
rhumerus -25.97 -1.67581 -85.3454
rradius 35.1762
rwrist -0.923041
rhand -21.7581 34.2733
rfingers 7.12502
rthumb 4.64236 4.3442
lclavicle 8.94531e-016 -1.59028e-015
lhumerus -37.9486 31.5454 67.7971
lradius 3.51398
lwrist -16.9045
lhand -15.3475 50.5028
lfingers 7.12502
lthumb 10.8296 80.2036
rfemur 7.40042 1.16086 27.3436
rtibia 10.2189
rfoot -13.3688 -7.31169
rtoes -7.50164
lfemur -31.4364 -3.91078 -14.9359
ltibia 23.7741
lfoot -22.6395 4.95917
ltoes 3.12112
481
root 35.4154 16.2911 -0.198548 242.172 86.6716 239.494
lowerback -3.77408 0.0712644 -0.254609
upperback 4.1267 0.141016 0.214362
thorax 6.40578 0.0692823 0.380939
lowerneck -9.01048 -2.50061 6.03132
upperneck 37.444 -3.11954 -0.641104
head 14.2131 0.0200366 -1.62297
rclavicle -3.52843e-015 -1.03368e-014
rhumerus -25.8514 -1.65533 -85.286
rradius 35.1305
rwrist -0.962689
rhand -21.8186 34.3905
rfingers 7.12502
rthumb 4.58391 4.46006
lclavicle -3.52843e-015 -1.03368e-014
lhumerus -38.3273 31.4379 67.6864
lradius 3.65185
lwrist -16.7431
lhand -15.3796 50.626
lfingers 7.12502
lthumb 10.7986 80.3284
rfemur 8.39078 1.19193 27.4662
rtibia 8.95578
rfoot -12.7124 -6.73365
rtoes -9.68681
lfemur -31.8501 -4.51264 -14.4023
ltibia 23.2771
lfoot -23.0645 6.03073
ltoes 3.03425
482
root 35.5315 16.2887 -0.211076 250.362 86.0681 247.876
lowerback -3.54064 0.156894 0.561101
upperback 4.15086 0.193703 0.406239
thorax 6.29832 0.129469 0.127462
lowerneck -9.13164 -2.41921 5.81947
upperneck 37.6738 -2.95289 -0.608855
head 14.36 0.0807988 -1.55257
rclavicle -5.1684e-015 -1.59028e-015
rhumerus -25.7543 -2.09522 -85.1916
rradius 34.9431
rwrist -0.624042
rhand -21.7064 34.5619
rfingers 7.12502
rthumb 4.69222 4.63389
lclavicle -5.1684e-015 -1.59028e-015
lhumerus -38.6466 31.3822 67.5277
lradius 3.56464
lwrist -16.6251
lhand -15.5935 50.6753
lfingers 7.12502
lthumb 10.5923 80.3883
rfemur 9.49106 1.19575 28.2038
rtibia 7.95296
rfoot -12.4408 -6.06804
rtoes -9.95065
lfemur -31.9586 -4.9056 -13.3498
ltibia 22.8299
lfoot -23.3849 6.82378
ltoes 3.12735
